<?xml version="1.0" encoding="utf-8"?>
<!-- Generator: Adobe Illustrator 14.0.0, SVG Export Plug-In . SVG Version: 6.00 Build 43363)  -->
<!DOCTYPE svg PUBLIC "-//W3C//DTD SVG 1.1//EN" "http://www.w3.org/Graphics/SVG/1.1/DTD/svg11.dtd">
<svg version="1.1" xmlns="http://www.w3.org/2000/svg" xmlns:xlink="http://www.w3.org/1999/xlink" x="0px" y="0px" width="720px"
	 height="720px" viewBox="0 0 720 720" enable-background="new 0 0 720 720" xml:space="preserve">
<g id="Layer_2">
</g>
<g id="Facebook">
	<path fill="#FFFFFF" fill-opacity="0.6" d="M360,0c198.822,0,360,161.178,360,360S558.822,720,360,720C161.177,720,0,558.822,0,360S161.177,0,360,0z
		 M535.144,163.125H184.859c-12.005,0-21.734,9.726-21.734,21.734v350.285c0,12.003,9.729,21.731,21.734,21.731h188.578V404.396
		h-51.312v-59.428h51.312v-43.822c0-50.858,31.063-78.552,76.437-78.552c21.726,0,40.403,1.618,45.847,2.343v53.149l-31.459,0.014
		c-24.681,0-29.455,11.725-29.455,28.93v37.938h58.843l-7.662,59.428h-51.181v152.479h100.338c12.003,0,21.731-9.729,21.731-21.731
		V184.859C556.875,172.851,547.146,163.125,535.144,163.125z"/>
</g>
</svg>
