<?xml version="1.0" encoding="utf-8"?>
<!-- Generator: Adobe Illustrator 14.0.0, SVG Export Plug-In . SVG Version: 6.00 Build 43363)  -->
<!DOCTYPE svg PUBLIC "-//W3C//DTD SVG 1.1//EN" "http://www.w3.org/Graphics/SVG/1.1/DTD/svg11.dtd">
<svg version="1.1" id="Instagram" xmlns="http://www.w3.org/2000/svg" xmlns:xlink="http://www.w3.org/1999/xlink" x="0px" y="0px"
	 width="720px" height="720px" viewBox="0 0 720 720" enable-background="new 0 0 720 720" xml:space="preserve">
<g>
	<path fill="#FFFFFF" fill-opacity="0.6" d="M360,0C161.177,0,0,161.178,0,360s161.177,360,360,360c198.822,0,360-161.178,360-360S558.822,0,360,0z
		 M561.599,515.061c0,25.703-20.818,46.538-46.51,46.538H204.914c-25.686,0-46.513-20.835-46.513-46.538V204.914
		c0-25.688,20.827-46.513,46.513-46.513h310.175c25.691,0,46.51,20.824,46.51,46.513V515.061z"/>
	<path fill="#FFFFFF" fill-opacity="0.6" d="M515.089,328.966h-35.102c2.555,9.929,4.07,20.3,4.07,31.025c0,68.53-55.547,124.066-124.061,124.066
		c-68.511,0-124.055-55.536-124.055-124.066c0-10.725,1.516-21.097,4.076-31.025h-35.104v170.598
		c0,8.553,6.946,15.496,15.524,15.496h279.121c8.581,0,15.53-6.943,15.53-15.496V328.966z"/>
	<path fill="#FFFFFF" fill-opacity="0.6" d="M515.089,220.421c0-8.561-6.949-15.507-15.53-15.507h-46.51c-8.564,0-15.507,6.946-15.507,15.507v46.53
		c0,8.562,6.942,15.507,15.507,15.507h46.51c8.581,0,15.53-6.945,15.53-15.507V220.421z"/>
	<path fill="#FFFFFF" fill-opacity="0.6" d="M359.997,282.458c-42.825,0-77.539,34.709-77.539,77.534c0,42.822,34.714,77.55,77.539,77.55
		c42.828,0,77.545-34.729,77.545-77.55C437.542,317.167,402.825,282.458,359.997,282.458"/>
</g>
</svg>
