<?xml version="1.0" encoding="utf-8"?>
<!-- Generator: Adobe Illustrator 14.0.0, SVG Export Plug-In . SVG Version: 6.00 Build 43363)  -->
<!DOCTYPE svg PUBLIC "-//W3C//DTD SVG 1.1//EN" "http://www.w3.org/Graphics/SVG/1.1/DTD/svg11.dtd">
<svg version="1.1" id="Twitter" xmlns="http://www.w3.org/2000/svg" xmlns:xlink="http://www.w3.org/1999/xlink" x="0px" y="0px"
	 width="720px" height="720px" viewBox="0 0 720 720" enable-background="new 0 0 720 720" xml:space="preserve">
<path fill="#FFFFFF" fill-opacity="0.6" d="M360,0C161.177,0,0,161.178,0,360s161.177,360,360,360c198.822,0,360-161.178,360-360S558.822,0,360,0z
	 M520.324,277.772c0.158,3.549,0.241,7.114,0.241,10.701c0,109.314-83.205,235.36-235.36,235.36
	c-46.717,0-90.195-13.689-126.804-37.162c6.471,0.765,13.052,1.154,19.729,1.154c38.759,0,74.426-13.223,102.738-35.415
	c-36.2-0.665-66.748-24.581-77.275-57.441c5.051,0.961,10.234,1.483,15.565,1.483c7.542,0,14.851-1.012,21.794-2.9
	c-37.842-7.604-66.357-41.035-66.357-81.113c0-0.352,0-0.697,0.008-1.043c11.151,6.196,23.906,9.92,37.466,10.346
	c-22.195-14.834-36.799-40.152-36.799-68.848c0-15.161,4.079-29.372,11.201-41.586c40.797,50.046,101.75,82.977,170.5,86.427
	c-1.409-6.054-2.143-12.366-2.143-18.853c0-45.681,37.032-82.716,82.725-82.716c23.791,0,45.291,10.042,60.381,26.121
	c18.842-3.708,36.546-10.597,52.525-20.075c-6.175,19.317-19.298,35.527-36.37,45.767c16.737-2,32.679-6.443,47.51-13.024
	C550.514,251.543,536.484,266.111,520.324,277.772z"/>
</svg>
